<svg xmlns="http://www.w3.org/2000/svg" viewBox="0 0 720 1280" role="img" aria-label="C1 insert open book" data-art-direction="C1"><defs>
      <linearGradient id="windowLight" x1="0" y1="1" x2="1" y2="0"><stop stop-color="#c3d2b3"/><stop offset="1" stop-color="#9db8ae"/></linearGradient>
      <linearGradient id="tableGrad" x1="0" y1="0" x2="0" y2="1"><stop stop-color="#a66e52"/><stop offset="1" stop-color="#8a685b"/></linearGradient>
      <linearGradient id="skinShade" x1="0" y1="0" x2="1" y2="1"><stop stop-color="#fff0d8" stop-opacity=".55"/><stop offset="1" stop-color="#c87970" stop-opacity=".32"/></linearGradient>
      <linearGradient id="cinemaLight" x1="0" y1="0" x2="1" y2="1"><stop stop-color="#f4c878" stop-opacity=".60"/><stop offset=".55" stop-color="#f4c878" stop-opacity=".08"/><stop offset="1" stop-color="#17233c" stop-opacity=".10"/></linearGradient>
      <pattern id="paperGrain" width="28" height="28" patternUnits="userSpaceOnUse"><circle cx="3" cy="7" r=".8" fill="#755b4d" opacity=".17"/><circle cx="20" cy="19" r=".7" fill="#755b4d" opacity=".15"/><path d="M8 24l5-1" stroke="#755b4d" stroke-width=".6" opacity=".12"/></pattern>
    </defs><g data-layer="insert tabletop and book"><rect x="0" y="0" width="720" height="1280" rx="0" fill="#d9c3a4" /><path d="M0 440Q200 390 720 450V1280H0Z" fill="url(#tableGrad)" stroke="#594651" stroke-width="4.5" stroke-linecap="round" stroke-linejoin="round" /><path d="M52 512Q220 475 421 510L481 1040Q270 1100 79 1040Z" fill="#b86f5c" stroke="#594651" stroke-width="4.5" stroke-linecap="round" stroke-linejoin="round" /><path d="M84 535Q245 509 424 535M99 1017Q283 1061 462 1015" fill="none" stroke="#f0d4a8" stroke-width="4" stroke-linecap="round" stroke-linejoin="round" /><rect x="535" y="572" width="106" height="183" rx="15" fill="#373d49" stroke="#594651" stroke-width="4.5" /><rect x="544" y="583" width="88" height="155" rx="8" fill="#546876" /><circle cx="588" cy="747" r="4" fill="#f1e4d1" /><path d="M129 747Q223 706 354 749L349 1010Q246 974 146 1012Z" fill="#fff0d3" stroke="#594651" stroke-width="4.5" stroke-linecap="round" stroke-linejoin="round" /><path d="M354 749Q461 708 567 747L550 1010Q455 975 349 1010Z" fill="#fff7df" stroke="#594651" stroke-width="4.5" stroke-linecap="round" stroke-linejoin="round" /><path d="M352 750L349 1009" fill="none" stroke="#594651" stroke-width="4" stroke-linecap="round" /><path d="M158 806q71-30 157-3M160 836q72-30 154-2M391 805q78-27 145-2M388 837q70-25 141 0" fill="none" stroke="#b39b7e" stroke-width="3" stroke-linecap="round" stroke-linejoin="round" /><path d="M352 840Q327 796 333 759M357 840Q388 810 401 775" fill="none" stroke="#698a65" stroke-width="5" stroke-linecap="round" stroke-linejoin="round" /><path d="M333 770Q300 731 291 755Q293 781 336 793M397 788Q426 752 441 775Q438 800 396 813" fill="#8fac7c" stroke="#594651" stroke-width="3" stroke-linecap="round" stroke-linejoin="round" /><ellipse cx="354" cy="724.0" rx="5" ry="9" fill="#e88e7a" stroke="#594651" stroke-width="1.8" transform="rotate(0 354 746)"/><ellipse cx="354" cy="724.0" rx="5" ry="9" fill="#e88e7a" stroke="#594651" stroke-width="1.8" transform="rotate(60 354 746)"/><ellipse cx="354" cy="724.0" rx="5" ry="9" fill="#e88e7a" stroke="#594651" stroke-width="1.8" transform="rotate(120 354 746)"/><ellipse cx="354" cy="724.0" rx="5" ry="9" fill="#e88e7a" stroke="#594651" stroke-width="1.8" transform="rotate(180 354 746)"/><ellipse cx="354" cy="724.0" rx="5" ry="9" fill="#e88e7a" stroke="#594651" stroke-width="1.8" transform="rotate(240 354 746)"/><ellipse cx="354" cy="724.0" rx="5" ry="9" fill="#e88e7a" stroke="#594651" stroke-width="1.8" transform="rotate(300 354 746)"/><circle cx="354" cy="746" r="4.5" fill="#e9ba62" stroke="#594651" stroke-width="1.5"/><path d="M309 729q-12-16 0-30m98 30q13-16 0-30" fill="none" stroke="#e5b65d" stroke-width="4" stroke-linecap="round" stroke-linejoin="round" /><circle cx="310" cy="699" r="4" fill="#e5b65d" /><circle cx="407" cy="699" r="4" fill="#e5b65d" /></g></svg>
