<svg xmlns="http://www.w3.org/2000/svg" width="400" height="400" viewBox="0 0 400 400">
  <ellipse cx="200" cy="345" rx="116" ry="22" fill="#332B37" opacity=".12"/>
  <path d="M66 212a134 134 0 0 1 268 0H66z" fill="#E97968" stroke="#463447" stroke-width="20" stroke-linejoin="round"/>
  <path d="M66 212q22 62 55 0 26 62 55 0 27 62 55 0 27 62 55 0 29 62 48 0" fill="#F2C45C" stroke="#463447" stroke-width="14" stroke-linejoin="round"/>
  <path d="M200 212v105q0 32 31 32 27 0 27-27" fill="none" stroke="#463447" stroke-width="20" stroke-linecap="round"/>
  <circle cx="173" cy="165" r="10" fill="#332B37"/>
  <circle cx="227" cy="165" r="10" fill="#332B37"/>
  <path d="M186 185q14 12 28 0" fill="none" stroke="#463447" stroke-width="8" stroke-linecap="round"/>
  <path d="M104 102l-20-24m212 24 20-24" stroke="#A994D6" stroke-width="14" stroke-linecap="round"/>
</svg>
