<svg xmlns="http://www.w3.org/2000/svg" viewBox="0 0 400 400"><ellipse cx="200" cy="344" rx="88" ry="18" fill="#463447" opacity=".14"/><path d="M200 61v27m-22-27h44" stroke="#463447" stroke-width="12" stroke-linecap="round"/><path d="M113 109h174l-23 39v124q0 40-64 40t-64-40V148z" fill="#E97968" stroke="#463447" stroke-width="13" stroke-linejoin="round"/><path d="M140 118h120l-16 30v113q0 21-44 21t-44-21V148z" fill="#F2C45C" stroke="#463447" stroke-width="8" stroke-linejoin="round"/><path d="M176 174q24-37 48 0 0 20-24 36-24-16-24-36" fill="#FFF4DE"/><circle cx="174" cy="234" r="6" fill="#332B37"/><circle cx="202" cy="234" r="6" fill="#332B37"/><path d="M177 251q10 9 20 0" fill="none" stroke="#463447" stroke-width="6" stroke-linecap="round"/><path d="M120 311q80 30 160 0" fill="none" stroke="#463447" stroke-width="13" stroke-linecap="round"/><path d="M121 330v13m158-13v13" stroke="#463447" stroke-width="12" stroke-linecap="round"/><path d="m80 167-22-10m284 10 22-10M88 94 70 78m242 16 18-16" stroke="#F2C45C" stroke-width="9" stroke-linecap="round"/></svg>